<?xml version="1.0" standalone="no"?>
<!DOCTYPE svg PUBLIC "-//W3C//DTD SVG 20010904//EN"
 "http://www.w3.org/TR/2001/REC-SVG-20010904/DTD/svg10.dtd">
<svg version="1.0" xmlns="http://www.w3.org/2000/svg"
 width="905.000000pt" height="731.000000pt" viewBox="0 0 905.000000 731.000000"
 preserveAspectRatio="xMidYMid meet">

<g transform="translate(0.000000,731.000000) scale(0.100000,-0.100000)"
fill="#607b35" stroke="none">
<path d="M4351 6974 c-222 -59 -355 -247 -355 -499 0 -93 24 -218 44 -230 3
-2 32 50 63 115 49 104 63 124 104 155 69 50 77 47 70 -24 -9 -82 -39 -157
-98 -240 -31 -44 -44 -71 -35 -71 7 0 50 18 95 41 288 144 401 453 265 722
-23 44 -27 47 -62 46 -20 0 -61 -7 -91 -15z"/>
<path d="M4870 6954 c-63 -35 -107 -80 -138 -139 -23 -44 -26 -62 -27 -151 0
-99 1 -101 45 -190 l44 -89 11 75 c12 83 49 163 75 158 9 -2 18 -21 24 -51 8
-39 6 -62 -11 -118 -11 -38 -16 -69 -12 -69 15 0 87 77 123 132 69 105 80 205
35 321 -25 66 -84 147 -107 147 -9 0 -37 -12 -62 -26z"/>
<path d="M3593 6884 c-73 -45 -99 -68 -131 -123 -26 -45 -52 -135 -52 -186 l0
-30 90 -1 c52 -1 96 -6 102 -12 8 -8 8 -41 0 -123 -7 -62 -9 -115 -6 -118 3
-3 37 27 76 67 157 165 168 296 42 492 -22 33 -44 62 -51 64 -6 3 -38 -11 -70
-30z"/>
<path d="M5303 6897 c-97 -106 -138 -279 -97 -401 17 -48 91 -138 147 -178
l30 -22 -7 95 c-3 52 -9 109 -12 127 -7 38 10 43 48 12 19 -14 32 -45 53 -120
15 -55 31 -100 36 -100 4 0 13 17 18 38 90 333 77 390 -116 520 -32 21 -63 41
-69 45 -6 3 -20 -4 -31 -16z"/>
<path d="M2488 6504 c-3 -5 -9 -25 -13 -43 -20 -95 6 -184 73 -242 36 -32 135
-82 184 -93 25 -6 26 -4 33 44 8 59 19 69 47 43 21 -18 21 -18 14 24 -18 121
-66 202 -140 238 -53 26 -189 45 -198 29z"/>
<path d="M6320 6469 c-96 -44 -137 -92 -155 -179 -3 -19 -9 -43 -11 -52 -8
-27 12 -22 76 22 108 73 108 41 1 -99 l-26 -34 45 7 c166 25 262 119 264 257
2 110 -66 137 -194 78z"/>
<path d="M5717 6398 c-95 -94 -132 -159 -148 -259 -19 -126 30 -295 122 -417
23 -29 43 -51 46 -48 3 3 5 58 5 123 -1 131 21 238 48 238 21 0 50 -65 59
-129 7 -50 -1 -171 -14 -223 -10 -40 12 -25 68 45 103 128 147 231 147 341 0
80 -52 231 -102 295 -35 46 -117 116 -135 116 -7 0 -50 -37 -96 -82z"/>
<path d="M3105 6432 c-47 -30 -105 -100 -131 -159 -61 -136 -55 -277 15 -418
39 -77 142 -207 155 -194 4 3 1 30 -5 59 -15 72 -7 225 15 275 l18 40 28 -34
c41 -48 54 -114 46 -227 -4 -57 -3 -94 2 -94 13 0 73 74 105 130 45 79 60 150
55 269 -4 78 -11 121 -27 164 -60 154 -190 243 -276 189z"/>
<path d="M4977 6270 c-42 -37 -91 -129 -106 -198 -35 -166 20 -349 144 -480
70 -74 125 -113 125 -89 0 8 -7 33 -15 56 -29 83 -37 159 -25 232 7 38 16 72
22 75 15 9 46 -25 74 -82 21 -42 27 -74 32 -161 l7 -108 45 85 c65 122 79 170
79 277 1 149 -41 256 -138 346 -91 85 -181 102 -244 47z"/>
<path d="M3800 6258 c-76 -29 -159 -114 -190 -193 -48 -126 -22 -323 54 -410
40 -47 42 -44 49 63 4 61 10 81 34 115 41 59 60 60 68 3 4 -24 2 -67 -4 -96
-15 -70 -14 -91 8 -119 l18 -23 62 100 c77 125 101 191 101 277 0 72 -13 105
-65 170 -18 22 -42 61 -53 88 -12 26 -22 47 -24 46 -2 0 -28 -10 -58 -21z"/>
<path d="M7036 6136 c-129 -79 -177 -162 -175 -305 2 -142 21 -170 52 -78 19
56 61 116 73 104 4 -4 0 -48 -10 -98 -9 -50 -15 -94 -12 -97 6 -5 87 48 132
86 63 53 82 151 59 313 -8 60 -15 114 -15 119 0 17 -13 11 -104 -44z"/>
<path d="M4455 6163 c-201 -42 -320 -158 -361 -351 -16 -77 -19 -312 -4 -312
5 0 25 30 44 68 49 96 90 149 143 182 79 51 88 39 52 -70 -14 -41 -44 -93 -86
-147 -41 -54 -58 -83 -48 -83 30 0 174 61 231 99 78 50 148 129 176 199 19 49
23 75 23 187 0 72 -6 155 -13 188 -13 57 -13 57 -50 56 -20 0 -68 -7 -107 -16z"/>
<path d="M1886 6125 c-30 -30 -57 -85 -67 -137 -17 -83 6 -151 75 -225 30 -32
69 -67 87 -77 l32 -19 -7 34 c-18 83 -18 109 -2 134 9 14 20 25 25 25 5 0 19
-30 31 -67 36 -109 40 -107 60 29 24 162 -22 243 -168 298 -45 17 -53 18 -66
5z"/>
<path d="M2358 6107 c-33 -13 -60 -71 -89 -194 -27 -108 -28 -233 -4 -323 39
-151 155 -302 309 -404 83 -56 217 -116 256 -116 19 0 16 6 -25 52 -53 59
-117 185 -139 273 -22 90 -29 162 -17 169 15 10 80 -34 129 -88 50 -54 75
-108 122 -258 18 -60 37 -108 41 -108 19 0 44 200 44 345 -1 138 -3 157 -28
230 -50 140 -145 259 -286 354 -97 65 -241 97 -313 68z"/>
<path d="M6630 6090 c-25 -17 -80 -29 -200 -45 -140 -18 -201 -45 -265 -118
-56 -64 -128 -201 -149 -283 -22 -83 -20 -214 4 -359 11 -66 20 -130 20 -142
0 -27 20 -32 20 -5 1 40 78 242 113 294 39 58 121 128 151 128 22 0 21 -57 -3
-152 -27 -105 -112 -263 -165 -307 -19 -16 -21 -31 -3 -31 26 0 212 98 287
151 240 169 332 352 290 580 -15 82 -72 299 -79 299 -3 0 -13 -5 -21 -10z"/>
<path d="M7247 5650 c-43 -11 -112 -35 -153 -54 -353 -163 -507 -453 -503
-947 2 -234 3 -235 69 -93 30 65 70 148 90 183 64 117 175 219 278 255 57 20
59 12 27 -99 -51 -180 -165 -365 -285 -462 -58 -46 -59 -48 -33 -51 61 -8 245
44 358 101 224 111 401 290 483 488 76 184 82 389 17 612 -11 37 -24 61 -38
69 -40 21 -223 20 -310 -2z"/>
<path d="M3449 5631 c-331 -140 -439 -476 -264 -821 38 -73 36 -75 59 65 18
112 57 203 105 249 17 16 33 27 36 24 3 -2 10 -30 15 -61 14 -74 1 -154 -44
-264 -20 -48 -36 -91 -36 -95 0 -23 79 36 108 80 17 27 56 68 86 91 63 49 99
99 131 186 59 156 38 297 -75 492 -23 40 -45 75 -49 77 -4 3 -36 -8 -72 -23z"/>
<path d="M1593 5630 c-59 -12 -95 -33 -133 -76 -65 -74 -98 -200 -86 -328 33
-362 323 -673 762 -814 162 -53 160 -56 39 70 -116 119 -171 193 -210 282 -43
97 -69 227 -47 239 4 3 32 -4 62 -15 43 -16 73 -39 135 -102 88 -89 151 -194
221 -364 23 -58 40 -88 45 -80 15 28 31 235 25 324 -14 180 -53 302 -164 499
-84 149 -163 232 -278 292 -44 23 -103 48 -132 57 -68 19 -185 28 -239 16z"/>
<path d="M5422 5589 c-161 -214 -157 -452 13 -659 94 -115 203 -208 219 -188
2 1 -15 50 -37 108 -31 84 -39 119 -40 175 -1 83 8 115 32 115 52 0 120 -151
136 -302 3 -37 11 -70 16 -73 5 -4 20 20 35 52 87 198 96 410 24 570 -56 123
-200 238 -315 251 -42 4 -44 3 -83 -49z"/>
<path d="M4475 5428 c-76 -50 -125 -142 -125 -234 0 -79 60 -218 112 -262 19
-15 23 -2 33 111 7 76 19 104 29 70 3 -10 10 -56 17 -103 6 -47 14 -88 18 -93
4 -4 21 12 38 35 123 173 122 312 -4 448 -30 33 -58 60 -62 60 -4 0 -29 -14
-56 -32z"/>
<path d="M3899 5314 c-45 -105 -61 -162 -66 -244 -4 -72 -2 -94 17 -143 30
-79 88 -148 189 -224 86 -65 108 -76 96 -45 -52 126 -86 285 -65 306 14 14 97
-68 110 -108 5 -17 14 -62 20 -101 17 -110 27 -106 67 30 26 92 23 253 -7 330
-33 86 -112 162 -210 202 -127 53 -126 53 -151 -3z"/>
<path d="M4990 5309 c-77 -36 -142 -96 -176 -161 -28 -55 -44 -153 -34 -206 7
-39 56 -161 70 -176 5 -5 14 11 20 35 23 89 31 106 70 144 l39 38 7 -27 c10
-40 -5 -134 -32 -200 -13 -33 -22 -61 -20 -64 8 -7 99 60 143 105 115 119 124
282 27 475 -19 37 -38 68 -42 68 -4 0 -36 -14 -72 -31z"/>
<path d="M950 5037 c-36 -58 -63 -163 -57 -223 12 -115 89 -220 206 -283 33
-17 64 -31 70 -31 14 0 -26 91 -73 165 -21 31 -34 60 -31 64 4 3 27 6 52 6 61
0 94 -37 118 -134 9 -39 21 -71 25 -71 15 0 33 143 27 215 -9 104 -32 162 -92
221 -50 50 -114 82 -193 97 -29 6 -35 3 -52 -26z"/>
<path d="M7895 5047 c-89 -34 -151 -104 -181 -202 -22 -75 -17 -296 8 -321 3
-2 15 30 28 72 23 76 79 154 110 154 28 0 1 -115 -57 -248 -8 -19 90 20 133
53 58 44 85 77 116 142 52 110 48 266 -9 334 -21 25 -32 29 -71 28 -26 0 -61
-6 -77 -12z"/>
<path d="M2682 4846 c-17 -19 -47 -64 -66 -99 -159 -283 -102 -601 148 -834
73 -68 181 -141 192 -130 3 3 -13 53 -35 112 -52 132 -70 241 -53 322 16 76
24 82 66 49 72 -55 126 -226 126 -405 l1 -76 20 25 c32 38 74 127 101 210 20
65 23 95 22 225 0 135 -3 158 -27 230 -67 204 -222 358 -395 394 -70 15 -66
16 -100 -23z"/>
<path d="M6194 4870 c-76 -15 -146 -59 -229 -144 -86 -88 -132 -157 -167 -252
-19 -50 -23 -79 -23 -194 0 -130 2 -139 37 -240 20 -58 51 -139 70 -180 l35
-75 7 106 c7 116 25 198 55 258 28 54 112 154 122 144 15 -15 22 -168 10 -234
-6 -36 -29 -111 -51 -168 -22 -57 -38 -106 -36 -109 11 -11 123 67 197 136 92
86 160 183 203 291 29 72 30 83 31 216 0 117 -4 153 -23 220 -53 183 -122 248
-238 225z"/>
<path d="M3677 4758 c-135 -73 -260 -225 -312 -379 -40 -118 -46 -277 -16
-403 30 -124 185 -426 219 -426 4 0 7 73 7 162 0 142 3 172 22 233 26 78 85
167 106 159 8 -3 25 -28 38 -56 21 -45 24 -66 23 -162 0 -103 -3 -120 -42
-236 -23 -68 -40 -126 -38 -127 2 -2 27 15 55 37 123 97 270 337 313 510 16
67 19 105 16 185 -5 113 -31 187 -113 327 -52 90 -165 208 -198 208 -12 0 -48
-15 -80 -32z"/>
<path d="M5172 4760 c-98 -71 -186 -193 -224 -310 -32 -100 -36 -270 -9 -383
34 -145 102 -273 208 -399 53 -62 141 -143 148 -136 3 3 -4 31 -16 64 -35 102
-59 216 -59 284 0 72 22 171 46 209 l16 23 28 -27 c35 -34 77 -126 91 -202 7
-34 9 -116 6 -200 -3 -79 -2 -143 2 -143 9 1 123 185 164 265 66 132 82 202
82 360 -1 126 -3 147 -27 207 -41 107 -87 176 -178 268 -79 80 -184 150 -222
150 -8 0 -34 -13 -56 -30z"/>
<path d="M4603 4731 c-288 -83 -421 -286 -385 -592 14 -119 42 -233 53 -222 5
5 27 60 49 122 22 62 54 132 70 156 33 47 96 93 110 79 13 -13 -8 -157 -30
-215 -22 -55 -40 -86 -84 -143 l-30 -39 29 7 c57 14 115 57 170 126 37 46 65
72 83 76 47 10 51 12 81 55 56 77 75 142 74 259 0 87 -5 120 -28 190 -36 112
-61 160 -83 159 -9 0 -45 -8 -79 -18z"/>
<path d="M1390 4418 c-17 -9 -31 -31 -42 -65 -93 -279 15 -503 315 -654 79
-40 248 -102 256 -93 2 2 -28 37 -67 78 -46 47 -82 96 -102 137 -31 65 -58
165 -47 175 16 16 87 -24 142 -80 45 -47 71 -85 105 -158 25 -54 48 -97 51
-98 12 0 16 116 8 217 -10 116 -45 237 -87 303 -46 72 -143 155 -238 202 -79
39 -93 42 -177 46 -63 2 -100 -1 -117 -10z"/>
<path d="M7391 4414 c-91 -24 -191 -83 -262 -154 -72 -71 -109 -139 -134 -242
-19 -78 -33 -328 -18 -328 6 0 38 42 71 93 102 154 232 263 232 194 0 -76 -97
-257 -177 -329 -23 -20 -39 -38 -37 -41 6 -6 131 18 169 33 203 78 338 212
401 400 41 122 11 365 -46 381 -42 12 -142 8 -199 -7z"/>
<path d="M670 4354 c-94 -25 -135 -69 -125 -134 14 -78 84 -196 154 -258 79
-70 189 -96 348 -81 54 4 109 8 123 9 36 0 15 17 -92 69 -72 36 -99 55 -120
86 -35 51 -35 65 0 65 48 0 124 -27 195 -70 37 -23 72 -40 78 -38 18 6 -67
162 -120 220 -109 119 -288 173 -441 132z"/>
<path d="M8065 4346 c-94 -30 -158 -75 -219 -157 -42 -55 -106 -176 -106 -199
0 -5 21 6 47 26 75 57 127 79 231 98 27 5 32 3 32 -14 0 -26 -63 -95 -114
-125 -23 -13 -67 -33 -99 -45 l-59 -22 7 -37 c4 -20 8 -37 8 -37 1 -1 38 7 82
17 44 10 127 25 184 33 212 32 300 105 360 300 31 99 29 111 -20 130 -109 44
-253 58 -334 32z"/>
<path d="M2101 4202 c-15 -28 -14 -135 3 -205 31 -130 130 -208 301 -234 l40
-6 -37 39 c-59 62 -100 174 -64 174 21 0 76 -41 129 -96 l48 -49 -7 55 c-10
82 -40 172 -73 217 -55 76 -126 110 -252 120 -71 5 -78 4 -88 -15z"/>
<path d="M6685 4209 c-34 -13 -91 -54 -118 -84 -45 -52 -97 -186 -97 -253 l0
-34 53 48 c57 52 105 84 125 84 32 0 -24 -119 -81 -173 -22 -20 -38 -39 -35
-42 7 -8 118 24 174 49 58 27 124 83 154 130 41 67 50 214 16 261 -16 22 -145
31 -191 14z"/>
<path d="M7905 3750 c-247 -49 -501 -175 -704 -348 -29 -26 -49 -48 -44 -49 5
-2 98 12 208 32 243 43 302 45 335 10 12 -13 54 -39 91 -56 38 -18 69 -36 69
-40 0 -15 -75 -69 -119 -85 -69 -25 -243 -29 -398 -10 -73 9 -147 16 -164 16
l-33 0 29 -30 c49 -51 170 -129 338 -217 195 -102 252 -117 407 -110 213 11
425 94 595 234 76 62 165 170 165 198 -1 27 -123 179 -192 238 -83 71 -203
139 -324 184 -143 53 -154 55 -259 33z"/>
<path d="M931 3745 c-151 -34 -275 -91 -399 -185 -107 -80 -232 -224 -232
-266 0 -51 234 -285 352 -352 309 -175 585 -142 973 116 109 73 205 155 194
166 -2 2 -24 0 -49 -5 -80 -17 -369 -23 -447 -10 -81 14 -193 63 -193 85 0 23
130 83 211 96 83 14 166 9 343 -21 65 -11 126 -19 134 -17 10 2 -17 30 -69 74
-109 91 -153 121 -269 179 -52 26 -133 70 -179 99 l-85 51 -110 2 c-68 2 -136
-3 -175 -12z"/>
<path d="M2701 3713 c-20 -17 -20 -20 -6 -86 58 -267 206 -479 400 -571 69
-33 171 -63 181 -53 17 17 -18 71 -96 147 -92 91 -119 129 -219 310 -87 157
-143 234 -185 254 -43 20 -49 20 -75 -1z"/>
<path d="M4183 3720 c-57 -12 -95 -33 -130 -74 -59 -66 -79 -152 -102 -427
-16 -186 -60 -282 -149 -321 -35 -16 -58 -19 -99 -15 -71 7 -166 54 -174 87
-4 14 -28 132 -53 264 -60 308 -75 336 -181 336 -38 0 -45 -3 -45 -19 0 -11
29 -147 65 -303 36 -155 65 -289 65 -297 0 -11 -16 -13 -91 -7 -165 12 -186
19 -243 80 -51 54 -96 82 -170 106 -50 16 -99 62 -236 219 -154 177 -235 234
-350 248 -44 5 -50 4 -50 -13 0 -34 47 -118 86 -155 22 -20 84 -70 139 -110
55 -41 176 -132 269 -204 129 -99 164 -131 148 -133 -38 -6 -154 66 -312 193
-219 176 -313 221 -409 195 -47 -12 -50 -24 -21 -80 31 -60 287 -271 640 -527
292 -212 549 -406 665 -502 84 -70 137 -105 222 -146 63 -31 119 -65 127 -77
37 -58 30 -156 -36 -508 -43 -234 -242 -1098 -255 -1111 -5 -5 -85 -16 -178
-24 -175 -16 -280 -31 -303 -44 -28 -16 116 -21 268 -10 85 6 205 8 265 5 186
-11 1997 -18 2007 -8 5 5 -12 28 -40 54 -45 40 -52 54 -80 144 -225 727 -311
1220 -248 1427 25 82 59 123 143 166 155 81 683 488 1190 918 228 193 327 287
321 304 -7 20 -67 29 -123 17 -99 -20 -228 -102 -390 -248 -88 -80 -173 -127
-303 -169 -295 -97 -714 -121 -852 -51 -99 50 -136 130 -150 324 -20 259 -45
352 -114 421 -46 45 -107 71 -192 81 -48 6 -52 5 -57 -18 -6 -24 4 -184 23
-346 14 -127 12 -345 -5 -425 -8 -37 -31 -106 -51 -155 -104 -245 -109 -297
-101 -997 7 -574 29 -917 82 -1273 14 -94 12 -107 -14 -96 -9 4 -43 10 -77 14
-33 4 -73 13 -90 21 l-29 15 3 144 c2 80 12 282 23 450 28 431 35 803 18 960
-7 69 -14 211 -15 315 -1 216 -9 263 -72 396 -50 105 -69 189 -82 360 -15 196
-12 293 10 420 11 63 20 135 20 160 0 40 -3 48 -22 53 -28 7 -51 6 -105 -4z"/>
<path d="M6157 3699 c-9 -6 -40 -56 -68 -112 -66 -131 -123 -216 -273 -405
-67 -84 -122 -157 -124 -161 -6 -17 33 -21 108 -12 69 9 77 12 104 46 16 20
55 54 86 75 32 21 69 53 84 70 81 97 216 398 216 482 0 28 -1 28 -57 28 -32 0
-66 -5 -76 -11z"/>
<path d="M1804 3026 c-120 -28 -216 -91 -285 -190 -27 -38 -49 -77 -49 -86 0
-10 45 -60 99 -113 113 -108 203 -160 309 -178 146 -26 363 43 508 160 97 79
96 80 -74 78 -136 -2 -240 11 -281 33 -22 12 37 59 98 77 42 12 86 14 193 11
76 -2 138 -1 138 3 0 13 -121 95 -197 133 -144 72 -331 101 -459 72z"/>
<path d="M6860 3020 c-103 -27 -248 -101 -311 -158 -29 -26 -50 -53 -48 -58 3
-7 34 -5 94 7 119 23 165 23 261 -2 98 -26 111 -35 87 -61 -56 -62 -193 -84
-337 -54 -43 9 -83 16 -89 16 -34 0 185 -169 265 -204 82 -36 200 -59 274 -53
143 11 386 173 454 301 14 28 14 29 -61 100 -86 81 -165 131 -258 163 -86 29
-223 30 -331 3z"/>
<path d="M6188 2523 c-32 -2 -58 -8 -58 -13 0 -6 28 -24 63 -41 79 -40 176
-108 213 -151 42 -48 91 -155 77 -169 -17 -17 -170 41 -254 97 -41 27 -103 78
-137 114 l-64 65 8 -40 c29 -161 144 -397 249 -513 112 -125 293 -174 557
-153 73 6 146 14 162 17 l29 6 -6 102 c-22 357 -195 585 -499 655 -86 21 -241
31 -340 24z"/>
<path d="M2534 2505 c-244 -38 -389 -120 -472 -268 -62 -110 -76 -163 -77
-287 -1 -65 -8 -133 -15 -157 -8 -23 -12 -44 -9 -47 2 -3 61 -14 129 -26 90
-16 150 -21 213 -17 79 4 98 9 175 47 74 37 102 59 192 150 117 118 193 231
247 366 37 91 61 189 50 201 -8 8 -56 -26 -68 -48 -5 -7 -16 -31 -25 -52 -21
-47 -114 -124 -200 -167 -65 -32 -168 -59 -180 -47 -12 11 59 118 116 176 30
31 95 83 143 115 48 32 90 63 93 67 8 13 -219 9 -312 -6z"/>
<path d="M1655 2359 c-206 -13 -260 -33 -314 -118 -61 -94 -123 -280 -102
-305 14 -16 78 -36 156 -47 162 -23 335 56 421 193 28 44 65 143 57 151 -2 3
-47 -17 -99 -44 -67 -35 -106 -49 -134 -49 -50 0 -51 13 -7 72 25 33 54 54
130 91 142 71 141 72 -108 56z"/>
<path d="M7140 2353 c0 -5 29 -23 65 -42 60 -30 165 -128 165 -152 0 -17 -55
-9 -105 16 -27 14 -75 41 -105 60 -92 59 -96 49 -36 -81 45 -96 137 -193 223
-236 89 -43 208 -51 310 -19 103 32 98 23 73 137 -19 81 -29 105 -54 130 -17
17 -40 46 -51 64 -26 43 -103 96 -168 115 -53 16 -317 22 -317 8z"/>
<path d="M5885 2215 c7 -108 7 -111 -22 -165 -16 -30 -35 -55 -43 -55 -16 0
-39 89 -40 156 0 26 7 66 15 89 8 24 13 46 10 49 -3 2 -39 -29 -81 -70 -80
-79 -121 -150 -144 -248 -22 -93 -9 -151 63 -291 74 -144 73 -143 184 -89 195
94 262 384 144 617 -16 31 -43 71 -61 87 l-31 30 6 -110z"/>
<path d="M3170 2278 c0 -7 7 -40 15 -73 17 -70 20 -211 5 -220 -6 -4 -26 10
-45 31 -33 36 -40 56 -60 175 -6 41 -43 95 -55 82 -19 -19 -62 -225 -67 -319
-7 -131 16 -217 77 -287 42 -47 145 -107 185 -107 31 0 120 98 151 165 34 74
42 178 20 262 -25 99 -62 162 -140 235 -72 69 -86 78 -86 56z"/>
</g>
</svg>
